<?xml version="1.0" encoding="UTF-8"?>
<svg xmlns="http://www.w3.org/2000/svg" width="180" height="192.2" version="1.1">
	<path d="m 45.2,0 c -12,0 -17.8,0.8 -25.6,2.4 -5,1 -12.6,8 -13,12.2 -0.8,9.8 -2.2,11.8 -1.8,18.4 0.2,6.6 9,19.6 11,27.2 0.6,2 4.6,6.4 10.8,10.6 l 0.8,-3.6 C 22.8,62.6 19,55.8 19.4,50.8 26,62 62,108.4 99.4,130.6 c 4.2,2.4 -9.4,19 -15.6,28.6 0.2,3.8 -0.4,6.8 -2,9.6 9,-4 18,-14.2 22,-20.8 l 0.4,3.8 c 8.8,-4.2 7.2,-14.2 11,-14.2 2.4,0 17.8,17.6 26.4,33.8 l 5.2,3.6 c 0,-3.6 -1.6,-8.2 -4.2,-11.6 1.6,1.4 5.6,4.4 6.2,10 l 3,1.6 c -3.8,-27.2 -31.2,-38.6 -15.2,-49.2 -5.2,9 6.8,18.6 11.2,20.4 C 164.4,125.8 169.8,105 165.6,90 156.6,57 111.8,0 45.2,0 Z m 2.6,9.6 c 11.4,0 16.8,9.2 14,16.4 -6.2,15.8 -29,-3.2 -27.2,-9.6 4.2,-5 9,-6.8 13.2,-6.8 z m 3.8,2.6 c -4.4,0 -7.8,4 -7.8,8.8 0,4.8 3.6,8.8 7.8,8.8 4.4,0 7.8,-4 7.8,-8.8 0,-4.8 -3.6,-8.8 -7.8,-8.8 z m 0,3.8 c 2.2,0 4.2,2.2 4.2,4.8 0,2.6 -1.8,4.8 -4.2,4.8 -2.2,0 -4,-2.2 -4,-4.8 0,-2.6 1.8,-4.8 4,-4.8 z m 23.6,1.4 c 30,60.2 -25.6,56.4 -43.4,39.4 28.6,13.8 58.6,2 43.4,-39.4 z m -59.6,1.2 c 7,0 15.4,7.4 21,20.2 -14.2,-9.4 -24.2,-13.4 -31,-12.2 2.2,-5.4 5.8,-8 10,-8 z m 114.2,8.8 c 13.2,11.6 22,22.6 29.4,34.8 5.4,-1.2 8.6,-1.4 14,0.4 l 6.8,-8 C 178,41 176.2,40.8 158.4,37.8 c 4.2,-2.4 13.8,-3 20,-0.8 -2.6,-5.6 -22.2,-12 -4.2,-11.6 -9.1,-7.6 -30.9,-8.3 -44.4,2 z M 70.6,74 C 77.5,72 90,88.1 130,103.2 102.4,102 82.4,85.2 66.8,91.2 78.4,82.9 62.4,76.3 70.6,74 Z m -38,2.8 C 22,86 0,80 0,98 14.2,84.2 27,98 42.8,88.8 Z m 9.4,59 -6.2,-0.4 c 0.6,6.6 3.2,11.2 6.8,15.6 -11.6,5.6 -16.6,10 -20.2,19.4 6.6,-1.4 12,-1.4 20,1.2 -22.4,2.4 -22.6,4.6 -20.6,20.6 45.6,0 67.4,-4.8 88.2,-25.6 0,4.2 -2,12.4 -5,14.8 5,-1.6 7.4,-3.6 10.4,-7.6 0.4,4.8 -1.4,9 -5.6,13.6 10.6,-2 17.4,-8 23.8,-22.2 l -15.4,-13.6 c -15.8,14 -37.8,23.8 -44,23.8 5.2,-10.2 5.8,-12.2 5.2,-17.4 L 89.6,143.4 C 73.4,142.6 54,115 35.6,110.9 33.4,126 33.8,128.2 42,135.8 Z"/>
</svg>
